# File created by Blade
# Date/Time:  Wed Apr 08 14:47:20 2015
# Frame Rate: 120.000 fps
#------------------------------------------------------
:FULLY-SPECIFIED
:DEGREES
1829
root 7.083603 32.248383 -21.682374 19.323310 -6.601176 -4.391428
Spine -11.190374 -8.792635 1.562584
Head 1.699534 -3.119210 5.648187
LeftShoulder -14.624528 45.385638 9.500428
LeftArm 53.665137 7.506661 -79.664944
LeftForeArm -7.023961 -0.000000 123.018538
LeftHand 10.847546 -0.000000 6.745682
LeftHandThumb1 -26.253704 0.000000 33.147579
RightShoulder -3.228671 -7.470127 -19.368297
RightArm 18.889384 -30.003978 83.159642
RightForeArm 8.005372 -0.000000 116.634038
RightHand 11.186815 -0.000000 -1.146585
RightHandThumb1 -24.326973 -0.000000 -32.862282
LeftUpLeg -23.858149 1.921251 4.633394
LeftLeg 20.527357 -0.000000 -0.000000
LeftFoot -22.863016 16.832649 -24.732143
LeftToeBase -4.481903 -0.000000 0.000000
RightUpLeg -22.351922 0.798603 6.394690
RightLeg 12.684730 -0.000000 -0.000000
RightFoot -15.793388 -23.134811 9.967222
RightToeBase 2.195657 -0.000000 -0.000000
1830
root 7.006825 32.242431 -21.653926 19.311759 -6.688231 -4.480231
Spine -11.165241 -8.617144 1.766480
Head 1.682350 -3.085275 5.415962
LeftShoulder -14.696553 45.370912 9.324550
LeftArm 53.715475 7.717480 -79.577330
LeftForeArm -6.812162 -0.000000 122.998565
LeftHand 10.815907 0.000000 6.575107
LeftHandThumb1 -26.253704 0.000000 33.147579
RightShoulder -3.235841 -7.478052 -19.334513
RightArm 18.958397 -29.957305 83.037958
RightForeArm 7.983999 -0.000000 116.612683
RightHand 11.141170 -0.000000 -1.139235
RightHandThumb1 -24.326973 -0.000000 -32.862282
LeftUpLeg -24.053143 1.763832 4.929183
LeftLeg 21.169618 -0.000000 -0.000000
LeftFoot -22.886515 16.928059 -24.758666
LeftToeBase -4.869119 -0.000000 0.000000
RightUpLeg -22.198571 0.726803 6.652694
RightLeg 12.565460 -0.000000 -0.000000
RightFoot -15.747206 -23.049355 9.739774
RightToeBase 2.154207 -0.000000 -0.000000
1831
root 6.928699 32.238669 -21.626502 19.311996 -6.811120 -4.590685
Spine -11.139262 -8.389174 1.959055
Head 1.657854 -3.078646 5.216778
LeftShoulder -14.769815 45.379013 9.177364
LeftArm 53.781533 7.947729 -79.480043
LeftForeArm -6.548638 0.000000 122.964823
LeftHand 10.790887 -0.000000 6.404376
LeftHandThumb1 -26.253704 0.000000 33.147579
RightShoulder -3.260169 -7.461694 -19.298552
RightArm 19.006891 -29.926782 82.937714
RightForeArm 7.957972 0.000000 116.557974
RightHand 11.177778 -0.000000 -1.125455
RightHandThumb1 -24.326973 -0.000000 -32.862282
LeftUpLeg -24.262356 1.675774 5.228354
LeftLeg 21.834883 -0.000000 -0.000000
LeftFoot -22.910472 16.971287 -24.874628
LeftToeBase -5.234794 -0.000000 0.000000
RightUpLeg -22.073324 0.736809 6.891251
RightLeg 12.494558 -0.000000 -0.000000
RightFoot -15.726230 -22.904525 9.629881
RightToeBase 2.177032 -0.000000 -0.000000
1832
root 6.854492 32.236998 -21.602495 19.308100 -6.952751 -4.682962
Spine -11.090055 -8.171787 2.130000
Head 1.599986 -3.018868 5.037565
LeftShoulder -14.898049 45.423263 9.008134
LeftArm 53.885047 8.201620 -79.383074
LeftForeArm -6.307576 -0.000000 122.911080
LeftHand 10.803206 -0.000000 6.369403
LeftHandThumb1 -26.253704 0.000000 33.147579
RightShoulder -3.259396 -7.457566 -19.260071
RightArm 19.099521 -29.902057 82.832128
RightForeArm 7.901283 -0.000000 116.499934
RightHand 11.121118 -0.000000 -1.197965
RightHandThumb1 -24.326973 -0.000000 -32.862282
LeftUpLeg -24.477269 1.539408 5.510434
LeftLeg 22.508741 -0.000000 -0.000000
LeftFoot -22.908450 17.096536 -24.992477
LeftToeBase -5.605645 -0.000000 0.000000
RightUpLeg -21.994426 0.742740 7.092471
RightLeg 12.518891 -0.000000 -0.000000
RightFoot -15.705307 -22.678992 9.571552
RightToeBase 2.091360 -0.000000 -0.000000
